<svg xmlns="http://www.w3.org/2000/svg" version="1.1" xmlns:xlink="http://www.w3.org/1999/xlink" xmlns:svgjs="http://svgjs.com/svgjs" width="1280" height="1400" preserveAspectRatio="none" viewBox="0 0 1280 1400"><g mask="url(&quot;#SvgjsMask1000&quot;)" fill="none"><rect width="1280" height="1400" x="0" y="0" fill="rgba(247, 247, 247, 1)"></rect><path d="M0,640.103C129.668,645.885,283.235,676.846,377.941,588.088C474.012,498.051,413.904,333.342,459.223,209.72C499.429,100.044,629.454,26.692,626.554,-90.085C623.626,-208.008,517.833,-292.764,444.452,-385.12C367.749,-481.657,303.89,-598.437,188.38,-641.565C70.193,-685.692,-74.091,-684.714,-181.73,-618.917C-285.058,-555.755,-285.23,-406.782,-356.218,-308.665C-418.385,-222.739,-550.354,-186.166,-570.202,-81.983C-590.056,22.229,-488.247,106.997,-454.574,207.597C-415.569,324.127,-445.911,470.617,-356.884,555.322C-266.47,641.347,-124.676,634.544,0,640.103" fill="#e6e6e6"></path><path d="M1280 1945.728C1383.603 1957.433 1492.724 1922.443 1572.99 1855.901 1649.782 1792.239 1665.749 1685.776 1704.459 1593.844 1741.867 1505.003 1788.637 1421.879 1796.2069999999999 1325.781 1805.228 1211.2640000000001 1813.763 1087.878 1751.943 991.059 1687.216 889.688 1572.4180000000001 830.975 1457.535 795.372 1341.542 759.424 1215.393 749.434 1100.659 789.219 988.538 828.098 898.639 913.687 832.392 1012.145 770.9639999999999 1103.44 767.69 1215.674 741.766 1322.614 712.709 1442.479 607.165 1572.58 670.945 1678.146 736.777 1787.107 910.124 1742.974 1026.676 1794.18 1118.625 1834.577 1180.203 1934.453 1280 1945.728" fill="#ffffff"></path></g><defs><mask id="SvgjsMask1000"><rect width="1280" height="1400" fill="#ffffff"></rect></mask></defs></svg>